<svg width="35" height="35" viewBox="0 0 35 35" fill="none" xmlns="http://www.w3.org/2000/svg">
<path fill-rule="evenodd" clip-rule="evenodd" d="M8.75023 5.24864C8.75023 2.34922 11.1007 -0.0012207 14.0001 -0.0012207H20.9999C23.8993 -0.0012207 26.2498 2.34922 26.2498 5.24864V6.99859H29.7497C32.6491 6.99859 34.9995 9.34904 34.9995 12.2485V21.4043C35.0002 21.4312 35.0002 21.4581 34.9995 21.485V29.748C34.9995 32.6474 32.6491 34.9978 29.7497 34.9978H5.25032C2.35091 34.9978 0.000463195 32.6474 0.000463195 29.748V21.4848C-0.000153041 21.4581 -0.000155753 21.4313 0.000463195 21.4045V12.2485C0.000463195 9.34904 2.35091 6.99859 5.25032 6.99859H8.75023V5.24864ZM5.25032 10.4985C4.28385 10.4985 3.50037 11.282 3.50037 12.2485V20.2471C7.85838 21.864 12.5741 22.7481 17.5 22.7481C22.4259 22.7481 27.1416 21.864 31.4996 20.2471V12.2485C31.4996 11.282 30.7161 10.4985 29.7497 10.4985H5.25032ZM22.7499 6.99859H12.2501V5.24864C12.2501 4.28217 13.0336 3.49869 14.0001 3.49869H20.9999C21.9664 3.49869 22.7499 4.28217 22.7499 5.24864V6.99859ZM31.4996 23.9597C27.1024 25.4439 22.3935 26.2481 17.5 26.2481C12.6065 26.2481 7.89763 25.4439 3.50037 23.9597V29.748C3.50037 30.7145 4.28385 31.4979 5.25032 31.4979H29.7497C30.7161 31.4979 31.4996 30.7145 31.4996 29.748V23.9597ZM15.75 19.2483C15.75 18.2818 16.5335 17.4983 17.5 17.4983H17.5175C18.484 17.4983 19.2674 18.2818 19.2674 19.2483C19.2674 20.2147 18.484 20.9982 17.5175 20.9982H17.5C16.5335 20.9982 15.75 20.2147 15.75 19.2483Z" fill="#111827"/>
</svg>
