<svg width="44" height="44" viewBox="0 0 44 44" fill="none" xmlns="http://www.w3.org/2000/svg">
<path fill-rule="evenodd" clip-rule="evenodd" d="M12.625 6.99829C11.5895 6.99829 10.75 7.83776 10.75 8.87329V35.1233C10.75 36.1588 11.5895 36.9983 12.625 36.9983H31.375C32.4105 36.9983 33.25 36.1588 33.25 35.1233L33.25 17.1499L23.0983 6.99829H12.625ZM7 8.87329C7 5.76669 9.5184 3.24829 12.625 3.24829H23.0983C24.0929 3.24829 25.0467 3.64338 25.75 4.34664L35.9017 14.4983C36.6049 15.2016 37 16.1554 37 17.1499V35.1233C37 38.2299 34.4816 40.7483 31.375 40.7483H12.625C9.5184 40.7483 7 38.2299 7 35.1233V8.87329ZM14.5 21.9983C14.5 20.9628 15.3395 20.1233 16.375 20.1233H27.625C28.6605 20.1233 29.5 20.9628 29.5 21.9983C29.5 23.0338 28.6605 23.8733 27.625 23.8733H16.375C15.3395 23.8733 14.5 23.0338 14.5 21.9983ZM14.5 29.4983C14.5 28.4628 15.3395 27.6233 16.375 27.6233H27.625C28.6605 27.6233 29.5 28.4628 29.5 29.4983C29.5 30.5338 28.6605 31.3733 27.625 31.3733H16.375C15.3395 31.3733 14.5 30.5338 14.5 29.4983Z" fill="#111827"/>
</svg>
