<svg width="47" height="30" viewBox="0 0 47 30" fill="none" xmlns="http://www.w3.org/2000/svg">
<path d="M0.986084 -0.000297946V9.37174C0.986084 12.513 2.326 13.6056 3.2119 14.3254C3.70652 14.724 3.7988 14.8163 3.7988 14.9972V24.3729C3.7988 27.6655 3.47767 29.9984 5.67395 29.9984C7.99573 29.9984 7.5491 27.0085 7.5491 24.3729V14.9972C7.5491 14.8532 7.56017 14.7905 8.07694 14.4103C8.98129 13.7459 10.3618 12.7418 10.3618 9.51939V-0.000297946H8.48667V8.43417C8.48667 8.95094 8.06956 9.37174 7.5491 9.37174C7.02863 9.37174 6.61152 8.95094 6.61152 8.43417V-0.000297946H4.73638V8.43417C4.73638 8.95094 4.31927 9.37174 3.7988 9.37174C3.27834 9.37174 2.86123 8.95094 2.86123 8.43417V-0.000297946H0.986084ZM41.239 -0.000297946C41.0803 0.00708499 40.9326 0.0624526 40.7997 0.14366C40.5229 0.317148 40.3605 0.612448 40.3605 0.937276V23.583C40.3605 26.8239 39.9286 29.9984 42.2356 29.9984C44.251 29.9984 44.1108 26.8903 44.1108 23.4353V16.8723C44.1108 16.0418 44.454 15.215 44.8416 14.2663C45.3805 12.9449 45.9822 11.4536 45.9822 9.37174C45.9822 8.24961 46.6651 2.51712 41.7078 0.0846004C41.5601 0.0144667 41.394 -0.00767994 41.239 -0.000297946ZM24.8905 0.937276C17.3936 0.937276 11.2994 7.0315 11.2994 14.5284C11.2994 22.0253 17.3936 28.1232 24.8905 28.1232C32.3874 28.1232 38.4853 22.0253 38.4853 14.5284C38.4853 7.0315 32.3874 0.937276 24.8905 0.937276ZM24.3627 5.65098C24.8794 5.62883 25.3298 6.01641 25.3593 6.53318C25.3888 7.04627 24.9976 7.46707 24.4808 7.4966C20.7711 7.71069 17.8587 10.8039 17.8587 14.5284C17.8587 18.4079 21.0147 21.5602 24.8905 21.5602C28.615 21.5602 31.7082 18.6478 31.9223 14.9381C31.9518 14.4214 32.3726 14.0338 32.8894 14.0596C33.4062 14.0891 33.7975 14.5395 33.7679 15.0562C33.5022 19.7589 29.6079 23.4353 24.8905 23.4353C19.9812 23.4353 15.9836 19.4414 15.9836 14.5284C15.9836 9.811 19.66 5.92413 24.3627 5.65098Z" fill="#471706"/>
<path d="M0.986084 -0.000297946V9.37174C0.986084 12.513 2.326 13.6056 3.2119 14.3254C3.70652 14.724 3.7988 14.8163 3.7988 14.9972V24.3729C3.7988 27.6655 3.47767 29.9984 5.67395 29.9984C7.99573 29.9984 7.5491 27.0085 7.5491 24.3729V14.9972C7.5491 14.8532 7.56017 14.7905 8.07694 14.4103C8.98129 13.7459 10.3618 12.7418 10.3618 9.51939V-0.000297946H8.48667V8.43417C8.48667 8.95094 8.06956 9.37174 7.5491 9.37174C7.02863 9.37174 6.61152 8.95094 6.61152 8.43417V-0.000297946H4.73638V8.43417C4.73638 8.95094 4.31927 9.37174 3.7988 9.37174C3.27834 9.37174 2.86123 8.95094 2.86123 8.43417V-0.000297946H0.986084ZM41.239 -0.000297946C41.0803 0.00708499 40.9326 0.0624526 40.7997 0.14366C40.5229 0.317148 40.3605 0.612448 40.3605 0.937276V23.583C40.3605 26.8239 39.9286 29.9984 42.2356 29.9984C44.251 29.9984 44.1108 26.8903 44.1108 23.4353V16.8723C44.1108 16.0418 44.454 15.215 44.8416 14.2663C45.3805 12.9449 45.9822 11.4536 45.9822 9.37174C45.9822 8.24961 46.6651 2.51712 41.7078 0.0846004C41.5601 0.0144667 41.394 -0.00767994 41.239 -0.000297946ZM24.8905 0.937276C17.3936 0.937276 11.2994 7.0315 11.2994 14.5284C11.2994 22.0253 17.3936 28.1232 24.8905 28.1232C32.3874 28.1232 38.4853 22.0253 38.4853 14.5284C38.4853 7.0315 32.3874 0.937276 24.8905 0.937276ZM24.3627 5.65098C24.8794 5.62883 25.3298 6.01641 25.3593 6.53318C25.3888 7.04627 24.9976 7.46707 24.4808 7.4966C20.7711 7.71069 17.8587 10.8039 17.8587 14.5284C17.8587 18.4079 21.0147 21.5602 24.8905 21.5602C28.615 21.5602 31.7082 18.6478 31.9223 14.9381C31.9518 14.4214 32.3726 14.0338 32.8894 14.0596C33.4062 14.0891 33.7975 14.5395 33.7679 15.0562C33.5022 19.7589 29.6079 23.4353 24.8905 23.4353C19.9812 23.4353 15.9836 19.4414 15.9836 14.5284C15.9836 9.811 19.66 5.92413 24.3627 5.65098Z" fill="black" fill-opacity="0.2"/>
<path d="M0.986084 -0.000297946V9.37174C0.986084 12.513 2.326 13.6056 3.2119 14.3254C3.70652 14.724 3.7988 14.8163 3.7988 14.9972V24.3729C3.7988 27.6655 3.47767 29.9984 5.67395 29.9984C7.99573 29.9984 7.5491 27.0085 7.5491 24.3729V14.9972C7.5491 14.8532 7.56017 14.7905 8.07694 14.4103C8.98129 13.7459 10.3618 12.7418 10.3618 9.51939V-0.000297946H8.48667V8.43417C8.48667 8.95094 8.06956 9.37174 7.5491 9.37174C7.02863 9.37174 6.61152 8.95094 6.61152 8.43417V-0.000297946H4.73638V8.43417C4.73638 8.95094 4.31927 9.37174 3.7988 9.37174C3.27834 9.37174 2.86123 8.95094 2.86123 8.43417V-0.000297946H0.986084ZM41.239 -0.000297946C41.0803 0.00708499 40.9326 0.0624526 40.7997 0.14366C40.5229 0.317148 40.3605 0.612448 40.3605 0.937276V23.583C40.3605 26.8239 39.9286 29.9984 42.2356 29.9984C44.251 29.9984 44.1108 26.8903 44.1108 23.4353V16.8723C44.1108 16.0418 44.454 15.215 44.8416 14.2663C45.3805 12.9449 45.9822 11.4536 45.9822 9.37174C45.9822 8.24961 46.6651 2.51712 41.7078 0.0846004C41.5601 0.0144667 41.394 -0.00767994 41.239 -0.000297946ZM24.8905 0.937276C17.3936 0.937276 11.2994 7.0315 11.2994 14.5284C11.2994 22.0253 17.3936 28.1232 24.8905 28.1232C32.3874 28.1232 38.4853 22.0253 38.4853 14.5284C38.4853 7.0315 32.3874 0.937276 24.8905 0.937276ZM24.3627 5.65098C24.8794 5.62883 25.3298 6.01641 25.3593 6.53318C25.3888 7.04627 24.9976 7.46707 24.4808 7.4966C20.7711 7.71069 17.8587 10.8039 17.8587 14.5284C17.8587 18.4079 21.0147 21.5602 24.8905 21.5602C28.615 21.5602 31.7082 18.6478 31.9223 14.9381C31.9518 14.4214 32.3726 14.0338 32.8894 14.0596C33.4062 14.0891 33.7975 14.5395 33.7679 15.0562C33.5022 19.7589 29.6079 23.4353 24.8905 23.4353C19.9812 23.4353 15.9836 19.4414 15.9836 14.5284C15.9836 9.811 19.66 5.92413 24.3627 5.65098Z" fill="black" fill-opacity="0.2"/>
<path d="M0.986084 -0.000297946V9.37174C0.986084 12.513 2.326 13.6056 3.2119 14.3254C3.70652 14.724 3.7988 14.8163 3.7988 14.9972V24.3729C3.7988 27.6655 3.47767 29.9984 5.67395 29.9984C7.99573 29.9984 7.5491 27.0085 7.5491 24.3729V14.9972C7.5491 14.8532 7.56017 14.7905 8.07694 14.4103C8.98129 13.7459 10.3618 12.7418 10.3618 9.51939V-0.000297946H8.48667V8.43417C8.48667 8.95094 8.06956 9.37174 7.5491 9.37174C7.02863 9.37174 6.61152 8.95094 6.61152 8.43417V-0.000297946H4.73638V8.43417C4.73638 8.95094 4.31927 9.37174 3.7988 9.37174C3.27834 9.37174 2.86123 8.95094 2.86123 8.43417V-0.000297946H0.986084ZM41.239 -0.000297946C41.0803 0.00708499 40.9326 0.0624526 40.7997 0.14366C40.5229 0.317148 40.3605 0.612448 40.3605 0.937276V23.583C40.3605 26.8239 39.9286 29.9984 42.2356 29.9984C44.251 29.9984 44.1108 26.8903 44.1108 23.4353V16.8723C44.1108 16.0418 44.454 15.215 44.8416 14.2663C45.3805 12.9449 45.9822 11.4536 45.9822 9.37174C45.9822 8.24961 46.6651 2.51712 41.7078 0.0846004C41.5601 0.0144667 41.394 -0.00767994 41.239 -0.000297946ZM24.8905 0.937276C17.3936 0.937276 11.2994 7.0315 11.2994 14.5284C11.2994 22.0253 17.3936 28.1232 24.8905 28.1232C32.3874 28.1232 38.4853 22.0253 38.4853 14.5284C38.4853 7.0315 32.3874 0.937276 24.8905 0.937276ZM24.3627 5.65098C24.8794 5.62883 25.3298 6.01641 25.3593 6.53318C25.3888 7.04627 24.9976 7.46707 24.4808 7.4966C20.7711 7.71069 17.8587 10.8039 17.8587 14.5284C17.8587 18.4079 21.0147 21.5602 24.8905 21.5602C28.615 21.5602 31.7082 18.6478 31.9223 14.9381C31.9518 14.4214 32.3726 14.0338 32.8894 14.0596C33.4062 14.0891 33.7975 14.5395 33.7679 15.0562C33.5022 19.7589 29.6079 23.4353 24.8905 23.4353C19.9812 23.4353 15.9836 19.4414 15.9836 14.5284C15.9836 9.811 19.66 5.92413 24.3627 5.65098Z" fill="black" fill-opacity="0.2"/>
<path d="M0.986084 -0.000297946V9.37174C0.986084 12.513 2.326 13.6056 3.2119 14.3254C3.70652 14.724 3.7988 14.8163 3.7988 14.9972V24.3729C3.7988 27.6655 3.47767 29.9984 5.67395 29.9984C7.99573 29.9984 7.5491 27.0085 7.5491 24.3729V14.9972C7.5491 14.8532 7.56017 14.7905 8.07694 14.4103C8.98129 13.7459 10.3618 12.7418 10.3618 9.51939V-0.000297946H8.48667V8.43417C8.48667 8.95094 8.06956 9.37174 7.5491 9.37174C7.02863 9.37174 6.61152 8.95094 6.61152 8.43417V-0.000297946H4.73638V8.43417C4.73638 8.95094 4.31927 9.37174 3.7988 9.37174C3.27834 9.37174 2.86123 8.95094 2.86123 8.43417V-0.000297946H0.986084ZM41.239 -0.000297946C41.0803 0.00708499 40.9326 0.0624526 40.7997 0.14366C40.5229 0.317148 40.3605 0.612448 40.3605 0.937276V23.583C40.3605 26.8239 39.9286 29.9984 42.2356 29.9984C44.251 29.9984 44.1108 26.8903 44.1108 23.4353V16.8723C44.1108 16.0418 44.454 15.215 44.8416 14.2663C45.3805 12.9449 45.9822 11.4536 45.9822 9.37174C45.9822 8.24961 46.6651 2.51712 41.7078 0.0846004C41.5601 0.0144667 41.394 -0.00767994 41.239 -0.000297946ZM24.8905 0.937276C17.3936 0.937276 11.2994 7.0315 11.2994 14.5284C11.2994 22.0253 17.3936 28.1232 24.8905 28.1232C32.3874 28.1232 38.4853 22.0253 38.4853 14.5284C38.4853 7.0315 32.3874 0.937276 24.8905 0.937276ZM24.3627 5.65098C24.8794 5.62883 25.3298 6.01641 25.3593 6.53318C25.3888 7.04627 24.9976 7.46707 24.4808 7.4966C20.7711 7.71069 17.8587 10.8039 17.8587 14.5284C17.8587 18.4079 21.0147 21.5602 24.8905 21.5602C28.615 21.5602 31.7082 18.6478 31.9223 14.9381C31.9518 14.4214 32.3726 14.0338 32.8894 14.0596C33.4062 14.0891 33.7975 14.5395 33.7679 15.0562C33.5022 19.7589 29.6079 23.4353 24.8905 23.4353C19.9812 23.4353 15.9836 19.4414 15.9836 14.5284C15.9836 9.811 19.66 5.92413 24.3627 5.65098Z" fill="black" fill-opacity="0.2"/>
</svg>
