<svg width="40" height="40" viewBox="0 0 40 40" fill="none" xmlns="http://www.w3.org/2000/svg">
<path d="M17.7936 10C13.4848 10 10 13.485 10 17.7937C10 22.1025 13.4848 25.5873 17.7936 25.5873C19.3319 25.5873 20.7556 25.136 21.9627 24.3695L27.593 30L29.5415 28.0515L23.9827 22.5072C24.982 21.1963 25.5873 19.572 25.5873 17.7937C25.5873 13.485 22.1023 10 17.7936 10ZM17.7936 11.8339C21.0941 11.8339 23.7535 14.4932 23.7535 17.7937C23.7535 21.0941 21.0941 23.7536 17.7936 23.7536C14.4932 23.7536 11.8337 21.0941 11.8337 17.7937C11.8337 14.4932 14.4932 11.8339 17.7936 11.8339Z" fill="#808080"/>
</svg>
